<svg xmlns="http://www.w3.org/2000/svg" viewBox="0 0 130 120"><path d="M102.12665,55.41985v-17.197c-4.808,2.546-11.719,10.062-12.925,15.034" style="fill:#ff7043;fill-rule:evenodd"/><path d="M102.34985,55.17965v-23.47c-5.534,4.371-11.356,9.277-14.051,14.77" style="fill:none;stroke:#3f3350;stroke-linecap:round;stroke-linejoin:round;stroke-width:2px"/><path d="M112.89185,90.90615h6.127c-.074,0-4.965-.018-6.121-.023Z" style="fill:#fff;fill-rule:evenodd"/><path d="M25.052,101.90915v15.75H44.314v-6.689a68.598,68.598,0,0,0,40.276.213v6.476h19.262v-15.75s6.634-6.229,8.795-11.027c.01,0,.105,0,.251.001l6.121.023v-22.387h-6.127c-.084,0-.162.022-.245.026-3.016-3.741-6.204-11.98-10.297-13.365-69.688-23.58-101.372,20.838-77.298,46.729" style="fill:#ff7043;fill-rule:evenodd"/><path d="M98.66285,66.86615a2.5,2.5,0,1,1-2.5-2.5,2.50027,2.50027,0,0,1,2.5,2.5" style="fill:#3f3350;fill-rule:evenodd"/><path d="M14.46355,71.68065a8.51941,8.51941,0,0,1-5.929-2.701,8.27916,8.27916,0,0,1-2.21-5.929.50943.50943,0,0,1,1.018,0,7.00974,7.00974,0,0,0,2.26,4.861,6.7602,6.7602,0,0,0,4.861,1.769,1.00125,1.00125,0,0,1,.1,2c-.027.001-.054.002-.08.001Z" style="fill:#3f3350;fill-rule:evenodd"/><path d="M112.89185,90.90615h6.127c-.074,0-4.965-.018-6.121-.023Z" style="fill:none;stroke:#3f3350;stroke-linecap:round;stroke-linejoin:round;stroke-width:2px"/><path d="M112.89815,90.88275c-.146-.001-.242-.001-.251-.001-2.161,4.798-8.795,11.027-8.795,11.027v15.75h-13.09" style="fill:none;stroke:#3f3350;stroke-linecap:round;stroke-linejoin:round;stroke-width:2px"/><path d="M44.31415,117.65915v-6.689a68.598,68.598,0,0,0,40.276.213v6.476" style="fill:none;stroke:#3f3350;stroke-linecap:round;stroke-linejoin:round;stroke-width:2px"/><path d="M19.16375,62.60155a27.91475,27.91475,0,0,0-4.7,15.298c0,18.119,10.588,24.01,10.588,24.01v15.75h8.565" style="fill:none;stroke:#3f3350;stroke-linecap:round;stroke-linejoin:round;stroke-width:2px"/><path d="M87.90545,47.39935a61.30473,61.30473,0,0,0-15.616-4.21,68.51337,68.51337,0,0,0-16.217-.012,70.5744,70.5744,0,0,0-8.004,1.457,62.9061,62.9061,0,0,0-7.746,2.485,51.05321,51.05321,0,0,0-13.969,8.212l-.005.005a.60877.60877,0,0,1-.795-.922,50.6094,50.6094,0,0,1,14.172-8.76,64.32055,64.32055,0,0,1,7.915-2.685,72.2974,72.2974,0,0,1,8.198-1.632,65.05459,65.05459,0,0,1,16.707-.161,58.63037,58.63037,0,0,1,16.146,4.384,1,1,0,0,1-.786,1.839" style="fill:#3f3350;fill-rule:evenodd"/><path d="M119.01925,68.51945h-6.127c-.084,0-.162.021-.245.025a39.48135,39.48135,0,0,0-10.297-13.365" style="fill:none;stroke:#3f3350;stroke-linecap:round;stroke-linejoin:round;stroke-width:2px"/><path d="M124.02215,79.71285c0,6.182-1.845,11.193-4.122,11.193-2.276,0-4.121-5.011-4.121-11.193s1.845-11.193,4.121-11.193c2.277,0,4.122,5.011,4.122,11.193" style="fill:#fb5d60;fill-rule:evenodd"/><path d="M115.77905,79.71285c0-6.182,1.845-11.193,4.122-11.193,2.276,0,4.121,5.011,4.121,11.193s-1.845,11.193-4.121,11.193c-1.313,0-2.483-1.668-3.238-4.265" style="fill:none;stroke:#3f3350;stroke-linecap:round;stroke-linejoin:round;stroke-width:2px"/><path d="M39.78825,71.32125c-.664.428-1.434.426-1.72-.004s.02-1.124.684-1.552c.664-.426,1.434-.425,1.721.004.286.43-.021,1.124-.685,1.552" style="fill:#d84315;fill-rule:evenodd"/><path d="M27.448,73.66005a.86218.86218,0,0,1-1.119-.391.83207.83207,0,0,1,.083-1.165.86218.86218,0,0,1,1.119.391.83193.83193,0,0,1-.083,1.165" style="fill:#d84315;fill-rule:evenodd"/><path d="M27.10565,77.85545a1.16871,1.16871,0,0,1,.428-1.586,1.142,1.142,0,0,1,1.551.491,1.16871,1.16871,0,0,1-.428,1.586,1.14223,1.14223,0,0,1-1.551-.491" style="fill:#d84315;fill-rule:evenodd"/><path d="M55.71945,63.48135c.448-.313,1.076-.005,1.403.688a1.51858,1.51858,0,0,1-.219,1.824c-.448.313-1.076.006-1.403-.689a1.51707,1.51707,0,0,1,.219-1.823" style="fill:#d84315;fill-rule:evenodd"/><path d="M44.94945,63.37785c.314-.22.755-.004.985.483a1.06661,1.06661,0,0,1-.153,1.281c-.315.22-.756.004-.986-.484a1.06683,1.06683,0,0,1,.154-1.28" style="fill:#d84315;fill-rule:evenodd"/><path d="M54.96255,59.38865c-.176-.459.272-1.193,1.001-1.642.729-.448,1.463-.439,1.639.02.176.458-.272,1.193-1.001,1.641s-1.463.439-1.639-.019" style="fill:#d84315;fill-rule:evenodd"/><path d="M68.57835,61.19235a1.46381,1.46381,0,0,1-.494,1.729.94519.94519,0,0,1-1.369-.615,1.46383,1.46383,0,0,1,.493-1.728.94565.94565,0,0,1,1.37.614" style="fill:#d84315;fill-rule:evenodd"/></svg>